<mxfile host="app.diagrams.net" modified="2024-01-01T00:00:00.000Z" agent="CompareToUT Documentation" etag="1" version="24.0.0" type="device">
  <diagram name="Scenario Fragments Dependencies" id="scenario-fragments">
    <mxGraphModel dx="1200" dy="800" grid="1" gridSize="10" guides="1" tooltips="1" connect="1" arrows="1" fold="1" page="1" pageScale="1" pageWidth="1400" pageHeight="1000" math="0" shadow="0">
      <root>
        <mxCell id="0" />
        <mxCell id="1" parent="0" />
        
        <!-- Scenario Fragments -->
        <mxCell id="scenario-details" value="ScenarioDetails" style="rounded=1;whiteSpace=wrap;html=1;fillColor=#E1D5E7;strokeColor=#9673A6;fontColor=#000000;fontStyle=1;" vertex="1" parent="1">
          <mxGeometry x="50" y="50" width="150" height="60" as="geometry" />
        </mxCell>
        
        <mxCell id="scenario-graphs" value="ScenarioGraphs" style="rounded=1;whiteSpace=wrap;html=1;fillColor=#E1D5E7;strokeColor=#9673A6;fontColor=#000000;fontStyle=1;" vertex="1" parent="1">
          <mxGeometry x="250" y="50" width="150" height="60" as="geometry" />
        </mxCell>
        
        <mxCell id="scenario-overview" value="ScenarioOverview" style="rounded=1;whiteSpace=wrap;html=1;fillColor=#E1D5E7;strokeColor=#9673A6;fontColor=#000000;fontStyle=1;" vertex="1" parent="1">
          <mxGeometry x="450" y="50" width="150" height="60" as="geometry" />
        </mxCell>
        
        <mxCell id="scenario-monthly" value="ScenarioMonthly" style="rounded=1;whiteSpace=wrap;html=1;fillColor=#E1D5E7;strokeColor=#9673A6;fontColor=#000000;fontStyle=1;" vertex="1" parent="1">
          <mxGeometry x="650" y="50" width="150" height="60" as="geometry" />
        </mxCell>
        
        <mxCell id="scenario-year" value="ScenarioYear" style="rounded=1;whiteSpace=wrap;html=1;fillColor=#E1D5E7;strokeColor=#9673A6;fontColor=#000000;fontStyle=1;" vertex="1" parent="1">
          <mxGeometry x="850" y="50" width="150" height="60" as="geometry" />
        </mxCell>
        
        <!-- Database Tables -->
        <mxCell id="costings-table" value="costings" style="rounded=1;whiteSpace=wrap;html=1;fillColor=#D5E8D4;strokeColor=#82B366;fontColor=#000000;" vertex="1" parent="1">
          <mxGeometry x="100" y="200" width="120" height="60" as="geometry" />
        </mxCell>
        
        <mxCell id="simulation-table" value="scenariosimulationdata" style="rounded=1;whiteSpace=wrap;html=1;fillColor=#D5E8D4;strokeColor=#82B366;fontColor=#000000;" vertex="1" parent="1">
          <mxGeometry x="300" y="200" width="160" height="60" as="geometry" />
        </mxCell>
        
        <mxCell id="scenarios-table" value="scenarios" style="rounded=1;whiteSpace=wrap;html=1;fillColor=#D5E8D4;strokeColor=#82B366;fontColor=#000000;" vertex="1" parent="1">
          <mxGeometry x="550" y="200" width="120" height="60" as="geometry" />
        </mxCell>
        
        <mxCell id="alphaess-table" value="alphaESSTransformedData" style="rounded=1;whiteSpace=wrap;html=1;fillColor=#D5E8D4;strokeColor=#82B366;fontColor=#000000;" vertex="1" parent="1">
          <mxGeometry x="750" y="200" width="160" height="60" as="geometry" />
        </mxCell>
        
        <!-- Connections ScenarioDetails -->
        <mxCell id="connection1" edge="1" parent="1" source="scenario-details" target="costings-table" style="rounded=1;orthogonalLoop=1;jettySize=auto;html=1;startArrow=none;startFill=0;endArrow=block;endFill=1;strokeColor=#82B366;">
          <mxGeometry relative="1" as="geometry" />
        </mxCell>
        <mxCell id="dao1-label" value="CostingDAO&#xa;getAllComparisons()" style="edgeLabel;html=1;align=center;verticalAlign=middle;resizable=0;points=[];fontSize=10;fontColor=#000000;labelBackgroundColor=#FFFFFF;" vertex="1" connectable="0" parent="connection1">
          <mxGeometry x="-0.1" y="1" relative="1" as="geometry">
            <mxPoint as="offset" />
          </mxGeometry>
        </mxCell>
        
        <mxCell id="connection2" edge="1" parent="1" source="scenario-details" target="simulation-table" style="rounded=1;orthogonalLoop=1;jettySize=auto;html=1;startArrow=none;startFill=0;endArrow=block;endFill=1;strokeColor=#82B366;">
          <mxGeometry relative="1" as="geometry" />
        </mxCell>
        <mxCell id="dao2-label" value="ScenarioDAO&#xa;getBarData()&#xa;getLineData()" style="edgeLabel;html=1;align=center;verticalAlign=middle;resizable=0;points=[];fontSize=10;fontColor=#000000;labelBackgroundColor=#FFFFFF;" vertex="1" connectable="0" parent="connection2">
          <mxGeometry x="-0.1" y="1" relative="1" as="geometry">
            <mxPoint as="offset" />
          </mxGeometry>
        </mxCell>
        
        <!-- Connections ScenarioGraphs -->
        <mxCell id="connection3" edge="1" parent="1" source="scenario-graphs" target="simulation-table" style="rounded=1;orthogonalLoop=1;jettySize=auto;html=1;startArrow=none;startFill=0;endArrow=block;endFill=1;strokeColor=#82B366;">
          <mxGeometry relative="1" as="geometry" />
        </mxCell>
        <mxCell id="dao3-label" value="ScenarioDAO&#xa;BaseGraphsFragment methods" style="edgeLabel;html=1;align=center;verticalAlign=middle;resizable=0;points=[];fontSize=10;fontColor=#000000;labelBackgroundColor=#FFFFFF;" vertex="1" connectable="0" parent="connection3">
          <mxGeometry x="-0.1" y="1" relative="1" as="geometry">
            <mxPoint as="offset" />
          </mxGeometry>
        </mxCell>
        
        <mxCell id="connection4" edge="1" parent="1" source="scenario-graphs" target="alphaess-table" style="rounded=1;orthogonalLoop=1;jettySize=auto;html=1;startArrow=none;startFill=0;endArrow=block;endFill=1;strokeColor=#82B366;">
          <mxGeometry relative="1" as="geometry" />
        </mxCell>
        <mxCell id="dao4-label" value="AlphaEssDAO&#xa;BaseGraphsFragment methods" style="edgeLabel;html=1;align=center;verticalAlign=middle;resizable=0;points=[];fontSize=10;fontColor=#000000;labelBackgroundColor=#FFFFFF;" vertex="1" connectable="0" parent="connection4">
          <mxGeometry x="-0.1" y="1" relative="1" as="geometry">
            <mxPoint as="offset" />
          </mxGeometry>
        </mxCell>
        
        <!-- Connections ScenarioOverview -->
        <mxCell id="connection5" edge="1" parent="1" source="scenario-overview" target="scenarios-table" style="rounded=1;orthogonalLoop=1;jettySize=auto;html=1;startArrow=none;startFill=0;endArrow=block;endFill=1;strokeColor=#82B366;">
          <mxGeometry relative="1" as="geometry" />
        </mxCell>
        <mxCell id="dao5-label" value="ScenarioDAO&#xa;loadScenarios()" style="edgeLabel;html=1;align=center;verticalAlign=middle;resizable=0;points=[];fontSize=10;fontColor=#000000;labelBackgroundColor=#FFFFFF;" vertex="1" connectable="0" parent="connection5">
          <mxGeometry x="-0.1" y="1" relative="1" as="geometry">
            <mxPoint as="offset" />
          </mxGeometry>
        </mxCell>
        
        <mxCell id="connection6" edge="1" parent="1" source="scenario-overview" target="costings-table" style="rounded=1;orthogonalLoop=1;jettySize=auto;html=1;startArrow=none;startFill=0;endArrow=block;endFill=1;strokeColor=#82B366;">
          <mxGeometry relative="1" as="geometry" />
        </mxCell>
        <mxCell id="dao6-label" value="CostingDAO&#xa;getAllComparisons()" style="edgeLabel;html=1;align=center;verticalAlign=middle;resizable=0;points=[];fontSize=10;fontColor=#000000;labelBackgroundColor=#FFFFFF;" vertex="1" connectable="0" parent="connection6">
          <mxGeometry x="-0.1" y="1" relative="1" as="geometry">
            <mxPoint as="offset" />
          </mxGeometry>
        </mxCell>
        
        <!-- Connections ScenarioMonthly -->
        <mxCell id="connection7" edge="1" parent="1" source="scenario-monthly" target="simulation-table" style="rounded=1;orthogonalLoop=1;jettySize=auto;html=1;startArrow=none;startFill=0;endArrow=block;endFill=1;strokeColor=#82B366;">
          <mxGeometry relative="1" as="geometry" />
        </mxCell>
        <mxCell id="dao7-label" value="ScenarioDAO&#xa;getMonthlyData()" style="edgeLabel;html=1;align=center;verticalAlign=middle;resizable=0;points=[];fontSize=10;fontColor=#000000;labelBackgroundColor=#FFFFFF;" vertex="1" connectable="0" parent="connection7">
          <mxGeometry x="-0.1" y="1" relative="1" as="geometry">
            <mxPoint as="offset" />
          </mxGeometry>
        </mxCell>
        
        <!-- Connections ScenarioYear -->
        <mxCell id="connection8" edge="1" parent="1" source="scenario-year" target="simulation-table" style="rounded=1;orthogonalLoop=1;jettySize=auto;html=1;startArrow=none;startFill=0;endArrow=block;endFill=1;strokeColor=#82B366;">
          <mxGeometry relative="1" as="geometry" />
        </mxCell>
        <mxCell id="dao8-label" value="ScenarioDAO&#xa;getYearlyData()" style="edgeLabel;html=1;align=center;verticalAlign=middle;resizable=0;points=[];fontSize=10;fontColor=#000000;labelBackgroundColor=#FFFFFF;" vertex="1" connectable="0" parent="connection8">
          <mxGeometry x="-0.1" y="1" relative="1" as="geometry">
            <mxPoint as="offset" />
          </mxGeometry>
        </mxCell>
        
      </root>
    </mxGraphModel>
  </diagram>
</mxfile>